<?xml version="1.0" encoding="utf-8"?>
<!-- Generator: Adobe Illustrator 22.1.0, SVG Export Plug-In . SVG Version: 6.00 Build 0)  -->
<svg version="1.1" id="Calque_1" xmlns="http://www.w3.org/2000/svg" xmlns:xlink="http://www.w3.org/1999/xlink" x="0px" y="0px"
	 viewBox="0 0 710 710" style="enable-background:new 0 0 710 710;" xml:space="preserve">
<style type="text/css">
	.st0{fill:#93C01F;}
	.st1{fill:#575756;}
	.st2{fill:#469936;}
	.st3{fill:#BCD77C;}
</style>
<g>
	<path class="st0" d="M22.1,587.3c1.4,10.4,10.4,17.9,25,17.9c7.7,0,17.7-2.9,22.5-7.8l13.3,13.1C74,619.6,59.6,624,46.8,624
		c-28.9,0-46.1-17.9-46.1-44.8c0-25.5,17.4-43.9,44.6-43.9c28.1,0,45.6,17.4,42.4,51.9L22.1,587.3L22.1,587.3z M67.7,570.1
		c-1.4-10.9-9.9-16.3-21.8-16.3c-11.2,0-20.4,5.4-23.5,16.3H67.7z"/>
	<path class="st0" d="M197.6,611.1c-9.7,9.5-19.9,13.3-32.3,13.3c-24.3,0-44.6-14.6-44.6-44.4c0-29.8,20.3-44.4,44.6-44.4
		c11.9,0,21.1,3.4,30.3,12.4l-13.1,13.8c-4.9-4.4-11.1-6.6-16.9-6.6c-14,0-24.2,10.2-24.2,24.9c0,16,10.9,24.5,23.8,24.5
		c6.6,0,13.3-1.9,18.4-7L197.6,611.1z"/>
	<path class="st0" d="M310.6,579.9c0,24.2-16.5,43.8-43.8,43.8c-27.2,0-43.6-19.6-43.6-43.8c0-24,16.7-43.8,43.4-43.8
		C293.4,536.2,310.6,555.9,310.6,579.9z M244,579.9c0,12.8,7.7,24.7,22.8,24.7c15.1,0,22.8-11.9,22.8-24.7
		c0-12.6-8.9-24.9-22.8-24.9C251.9,555.1,244,567.3,244,579.9z"/>
	<path class="st1" d="M367.8,514.2V538H391v17.9h-23.3v36.3c0,8,4.4,11.9,10.9,11.9c3.2,0,7-1,10-2.5l5.8,17.7
		c-6,2.4-10.9,3.4-17.2,3.6c-18.2,0.7-30.1-9.7-30.1-30.6V556h-15.7v-17.9h15.7v-21.6L367.8,514.2z"/>
	<path class="st1" d="M444.4,537.9l1.5,9.7c6.5-10.4,15.1-11.9,23.7-11.9c8.7,0,17,3.4,21.6,8l-9.4,18c-4.3-3.6-8.2-5.4-15-5.4
		c-10.9,0-20.9,5.8-20.9,21.3v44.3h-20.8V538L444.4,537.9L444.4,537.9z"/>
	<path class="st1" d="M532.1,587.3c1.4,10.4,10.4,17.9,25,17.9c7.7,0,17.7-2.9,22.5-7.8l13.3,13.1c-8.9,9.2-23.3,13.6-36.1,13.6
		c-28.9,0-46.1-17.9-46.1-44.8c0-25.5,17.4-43.9,44.6-43.9c28.1,0,45.6,17.4,42.4,51.9H532.1L532.1,587.3z M577.7,570.1
		c-1.4-10.9-9.9-16.3-21.8-16.3c-11.2,0-20.4,5.4-23.5,16.3H577.7z"/>
	<path class="st1" d="M643.4,587.3c1.4,10.4,10.4,17.9,25,17.9c7.7,0,17.7-2.9,22.5-7.8l13.3,13.1c-8.9,9.2-23.3,13.6-36.1,13.6
		c-28.9,0-46.1-17.9-46.1-44.8c0-25.5,17.4-43.9,44.6-43.9c28.1,0,45.6,17.4,42.4,51.9H643.4L643.4,587.3z M689,570.1
		c-1.4-10.9-9.9-16.3-21.8-16.3c-11.2,0-20.4,5.4-23.5,16.3H689z"/>
	<path class="st0" d="M357.3,88.4c-61.2,0-111,49.8-111,111s49.8,111,111,111s111-49.8,111-111C468.3,138.1,418.5,88.4,357.3,88.4z"
		/>
	<path class="st1" d="M364.6,252c2.6-2.3,11.3-9.9,17-16.2l1-1.1c10.2-11.2,22.3-25.4,24.1-31.6c0,0,2.9-9.5,0.9-8
		c-1.9,1.5-15.2,21.7-44.1,44c-0.6-10-1.6-56.2-2.1-58.8c-0.6-2.6-3.1-2.5-3.1-2.5c-3.6,0-4,5-4.2,12.6c-0.2,10.8-0.7,59.1-0.6,75.6
		c-35.3-24.9-41.4-31.6-44.8-32.9c-3.4-1.3-1.7,4,3.6,10.2c2.1,2.4,11.8,10.4,16.4,14.3c10.8,9.2,23.2,18.1,23.5,27.1
		c0.3,7.6-0.8,112.4-1.9,200.6h14.8C364.3,385.3,363.7,266.5,364.6,252z"/>
	<path class="st2" d="M463.5,256.8c-14.1,29-40.3,51-72.2,59.3c-1.1,5.4-1.7,10.9-1.6,16.6c1,40.9,35,73.2,75.9,72.1
		c40.9-1,73.2-35,72.1-75.9C536.7,288.6,503.6,256.7,463.5,256.8z"/>
	<path class="st3" d="M236.1,217.1c-5.3-1-10.7-1.6-16.3-1.6c-47.1,0-85.3,38.2-85.3,85.3s38.2,85.3,85.3,85.3
		c43.9,0,79.9-33.1,84.7-75.7C268.2,293,241.9,258.3,236.1,217.1z"/>
	<path class="st1" d="M460.8,377.7c0-5.7-1.7-4.4-11.5-14.5c-3.7-3.8-6.2-6.3-7.6-9.5c-2.9-6.4,1.9-4.2,1.9-4.2c4.5,4,5.8,7,18,15
		c-0.1-16.5,0.2-28,0.4-37.7c0.2-7.8,0.7-12.2,3.9-12.2c0,0,1.2-0.1,2.2,1c0.5,0.6,0.6,1.6,0.6,1.6c0.6,11.4,0.5,16.8,1,26.9
		c10.1-4.8,10.6-9.1,13.4-8.7c4.1,0.7-7.3,12.7-13.1,16.6c-0.4,7.6,0.7,75.1,1.1,133.2h-11.7C460.1,452.1,460.8,382.5,460.8,377.7z"
		/>
	<path class="st1" d="M224.5,370.1c0.3-9,16.6-22.9,27.4-32.1c4.6-3.9,8.6-7.3,10.6-9.7c5.4-6.2,7.3-10.4,6-12.6l-1.8-3.1l-2.2,2.9
		c-4.5,5.8-28.6,23.4-41.3,32.4c0.1-16.5-0.4-65.1-0.6-75.6c-0.2-7.5-1-12.6-4.6-12.6c0,0-0.7-0.3-1.9,0.7c-0.8,0.6-0.8,1.7-0.8,1.7
		c-0.9,22.3-1.2,26.3-1.7,36.3c-24.8-10.7-29.5-15.5-33.7-18.2c-4-2.6-4,2.1-4,2.1c1.7,6.1,17.2,17.1,37,26.6
		c0.6,9.7-0.5,87.5-1.4,176.4h14C224.7,414.8,224.3,375.3,224.5,370.1z"/>
</g>
</svg>
