<?xml version="1.0"?>
<svg xmlns="http://www.w3.org/2000/svg" id="Capa_1" enable-background="new 0 0 512 512" height="512px" viewBox="0 0 512 512" width="512px" class=""><g><g><path d="m397.26 213.529-81.26-38.74-83.45 36.55-53.426 134.661 50.132 134.68 41.744 31.32h45 196z" fill="#979fef" data-original="#979FEF" class="" style="fill:#A71414" data-old_color="#979fef"/><path d="m397.26 213.529-81.26-38.74v337.211h196z" fill="#6b77e8" data-original="#6B77E8" class="active-path" style="fill:#C12020" data-old_color="#6b77e8"/><path d="m183.397 277.392-47.397 17.397-47.397-17.397-88.603 234.608h136 135z" fill="#979fef" data-original="#979FEF" class="" style="fill:#A71414" data-old_color="#979fef"/><path d="m271 512-87.603-234.608-47.397 17.397v217.211z" fill="#6b77e8" data-original="#6B77E8" class="active-path" style="fill:#C12020" data-old_color="#6b77e8"/><path d="m136 151-47.397 126.392 47.397 47.397 47.397-47.397z" fill="#f0f7ff" data-original="#F0F7FF" class="" style="fill:#C72424" data-old_color="#f0f7ff"/><path d="m136 151v173.789l47.397-47.397z" fill="#dfe7f4" data-original="#DFE7F4" class="" style="fill:#A31F1F" data-old_color="#dfe7f4"/><path d="m316 0-83.45 211.339 53.45 53.45 30-30 30 30 51.26-51.26z" fill="#f0f7ff" data-original="#F0F7FF" class="" style="fill:#C72424" data-old_color="#f0f7ff"/><path d="m397.26 213.529-81.26-213.529v234.789l30 30z" fill="#dfe7f4" data-original="#DFE7F4" class="" style="fill:#A31F1F" data-old_color="#dfe7f4"/></g></g> </svg>
