<?xml version="1.0"?>
<svg xmlns="http://www.w3.org/2000/svg" id="Flat" height="512px" viewBox="0 0 512 512" width="512px" class=""><g><path d="m440 216a48 48 0 0 0 -48-48c-.706 0-1.406.023-2.1.053a44.012 44.012 0 0 0 -42.615-71.186c-17.663-43.42-51.918-72.867-91.285-72.867-36.855 0-69.231 25.808-87.7 64.729a47.994 47.994 0 0 0 -43.883 79.481c-1.454-.132-2.925-.21-4.414-.21a47.99 47.99 0 0 0 -29.844 85.58 80.018 80.018 0 0 0 112.356 90.609 71.982 71.982 0 0 0 106.976 0 79.993 79.993 0 0 0 112.353-90.609 47.9 47.9 0 0 0 18.156-37.58z" fill="#35a872" data-original="#35A872" class="" data-old_color="#35a872" style="fill:#2CC87F"/><path d="m280 312 64-96h-48l-40 64-40-64h-48l64 96v136c0 32.052-24 40-24 40h96s-24-7.948-24-40z" fill="#95573a" data-original="#95573A" class="active-path" style="fill:#C46C42" data-old_color="#95573a"/></g> </svg>
